<mxfile host="app.diagrams.net" modified="2024-03-06T13:24:53.725Z" agent="Mozilla/5.0 (Windows NT 10.0; Win64; x64) AppleWebKit/537.36 (KHTML, like Gecko) Chrome/122.0.0.0 Safari/537.36" etag="8_jYZ8lArXF-GseFghw8" version="24.0.2" type="device">
  <diagram id="C5RBs43oDa-KdzZeNtuy" name="Page-1">
    <mxGraphModel dx="1674" dy="780" grid="1" gridSize="10" guides="1" tooltips="1" connect="1" arrows="1" fold="1" page="1" pageScale="1" pageWidth="827" pageHeight="1169" math="0" shadow="0">
      <root>
        <mxCell id="WIyWlLk6GJQsqaUBKTNV-0" />
        <mxCell id="WIyWlLk6GJQsqaUBKTNV-1" parent="WIyWlLk6GJQsqaUBKTNV-0" />
        <mxCell id="UcAI8EwLYbmK6yxI5ia3-2" style="edgeStyle=orthogonalEdgeStyle;rounded=0;orthogonalLoop=1;jettySize=auto;html=1;entryX=0.5;entryY=0;entryDx=0;entryDy=0;" edge="1" parent="WIyWlLk6GJQsqaUBKTNV-1" source="UcAI8EwLYbmK6yxI5ia3-0">
          <mxGeometry relative="1" as="geometry">
            <mxPoint x="300" y="170" as="targetPoint" />
          </mxGeometry>
        </mxCell>
        <mxCell id="UcAI8EwLYbmK6yxI5ia3-0" value="Start" style="rounded=1;whiteSpace=wrap;html=1;" vertex="1" parent="WIyWlLk6GJQsqaUBKTNV-1">
          <mxGeometry x="240" y="60" width="120" height="50" as="geometry" />
        </mxCell>
        <mxCell id="UcAI8EwLYbmK6yxI5ia3-4" style="edgeStyle=orthogonalEdgeStyle;rounded=0;orthogonalLoop=1;jettySize=auto;html=1;entryX=0.5;entryY=0;entryDx=0;entryDy=0;" edge="1" parent="WIyWlLk6GJQsqaUBKTNV-1" target="UcAI8EwLYbmK6yxI5ia3-3">
          <mxGeometry relative="1" as="geometry">
            <mxPoint x="300" y="230" as="sourcePoint" />
          </mxGeometry>
        </mxCell>
        <mxCell id="UcAI8EwLYbmK6yxI5ia3-6" value="true" style="edgeStyle=orthogonalEdgeStyle;rounded=0;orthogonalLoop=1;jettySize=auto;html=1;" edge="1" parent="WIyWlLk6GJQsqaUBKTNV-1" source="UcAI8EwLYbmK6yxI5ia3-3" target="UcAI8EwLYbmK6yxI5ia3-5">
          <mxGeometry relative="1" as="geometry" />
        </mxCell>
        <mxCell id="UcAI8EwLYbmK6yxI5ia3-7" value="false" style="edgeStyle=orthogonalEdgeStyle;rounded=0;orthogonalLoop=1;jettySize=auto;html=1;" edge="1" parent="WIyWlLk6GJQsqaUBKTNV-1" source="UcAI8EwLYbmK6yxI5ia3-3">
          <mxGeometry relative="1" as="geometry">
            <mxPoint x="300" y="620" as="targetPoint" />
          </mxGeometry>
        </mxCell>
        <mxCell id="UcAI8EwLYbmK6yxI5ia3-3" value="userName==Admin&lt;div&gt;&amp;amp;&amp;amp; password==Admin123&lt;/div&gt;" style="rhombus;whiteSpace=wrap;html=1;" vertex="1" parent="WIyWlLk6GJQsqaUBKTNV-1">
          <mxGeometry x="190" y="280" width="220" height="220" as="geometry" />
        </mxCell>
        <mxCell id="UcAI8EwLYbmK6yxI5ia3-11" style="edgeStyle=orthogonalEdgeStyle;rounded=0;orthogonalLoop=1;jettySize=auto;html=1;entryX=0.5;entryY=0;entryDx=0;entryDy=0;" edge="1" parent="WIyWlLk6GJQsqaUBKTNV-1" source="UcAI8EwLYbmK6yxI5ia3-5" target="UcAI8EwLYbmK6yxI5ia3-10">
          <mxGeometry relative="1" as="geometry" />
        </mxCell>
        <mxCell id="UcAI8EwLYbmK6yxI5ia3-5" value="Xosh gelmishiniz!" style="shape=document;whiteSpace=wrap;html=1;boundedLbl=1;" vertex="1" parent="WIyWlLk6GJQsqaUBKTNV-1">
          <mxGeometry x="540" y="350" width="120" height="80" as="geometry" />
        </mxCell>
        <mxCell id="UcAI8EwLYbmK6yxI5ia3-9" style="edgeStyle=orthogonalEdgeStyle;rounded=0;orthogonalLoop=1;jettySize=auto;html=1;entryX=0;entryY=0.5;entryDx=0;entryDy=0;" edge="1" parent="WIyWlLk6GJQsqaUBKTNV-1" source="UcAI8EwLYbmK6yxI5ia3-8" target="UcAI8EwLYbmK6yxI5ia3-10">
          <mxGeometry relative="1" as="geometry">
            <mxPoint x="530" y="660" as="targetPoint" />
          </mxGeometry>
        </mxCell>
        <mxCell id="UcAI8EwLYbmK6yxI5ia3-8" value="UserName ve ya password yanlishdir" style="shape=document;whiteSpace=wrap;html=1;boundedLbl=1;" vertex="1" parent="WIyWlLk6GJQsqaUBKTNV-1">
          <mxGeometry x="240" y="620" width="120" height="80" as="geometry" />
        </mxCell>
        <mxCell id="UcAI8EwLYbmK6yxI5ia3-10" value="end" style="rounded=1;whiteSpace=wrap;html=1;" vertex="1" parent="WIyWlLk6GJQsqaUBKTNV-1">
          <mxGeometry x="540" y="630" width="120" height="60" as="geometry" />
        </mxCell>
        <mxCell id="UcAI8EwLYbmK6yxI5ia3-15" value="" style="edgeStyle=orthogonalEdgeStyle;rounded=0;orthogonalLoop=1;jettySize=auto;html=1;" edge="1" parent="WIyWlLk6GJQsqaUBKTNV-1" source="UcAI8EwLYbmK6yxI5ia3-12">
          <mxGeometry relative="1" as="geometry">
            <mxPoint x="300" y="1040" as="targetPoint" />
          </mxGeometry>
        </mxCell>
        <mxCell id="UcAI8EwLYbmK6yxI5ia3-12" value="start" style="rounded=1;whiteSpace=wrap;html=1;" vertex="1" parent="WIyWlLk6GJQsqaUBKTNV-1">
          <mxGeometry x="240" y="900" width="120" height="60" as="geometry" />
        </mxCell>
        <mxCell id="UcAI8EwLYbmK6yxI5ia3-18" value="" style="edgeStyle=orthogonalEdgeStyle;rounded=0;orthogonalLoop=1;jettySize=auto;html=1;" edge="1" parent="WIyWlLk6GJQsqaUBKTNV-1" target="UcAI8EwLYbmK6yxI5ia3-17">
          <mxGeometry relative="1" as="geometry">
            <mxPoint x="300" y="1100" as="sourcePoint" />
          </mxGeometry>
        </mxCell>
        <mxCell id="UcAI8EwLYbmK6yxI5ia3-22" value="true" style="edgeStyle=orthogonalEdgeStyle;rounded=0;orthogonalLoop=1;jettySize=auto;html=1;entryX=0;entryY=0.5;entryDx=0;entryDy=0;" edge="1" parent="WIyWlLk6GJQsqaUBKTNV-1" source="UcAI8EwLYbmK6yxI5ia3-17" target="UcAI8EwLYbmK6yxI5ia3-21">
          <mxGeometry relative="1" as="geometry" />
        </mxCell>
        <mxCell id="UcAI8EwLYbmK6yxI5ia3-23" value="false" style="edgeStyle=orthogonalEdgeStyle;rounded=0;orthogonalLoop=1;jettySize=auto;html=1;" edge="1" parent="WIyWlLk6GJQsqaUBKTNV-1" source="UcAI8EwLYbmK6yxI5ia3-17">
          <mxGeometry relative="1" as="geometry">
            <mxPoint x="300" y="1420" as="targetPoint" />
          </mxGeometry>
        </mxCell>
        <mxCell id="UcAI8EwLYbmK6yxI5ia3-17" value="n%30==0" style="rhombus;whiteSpace=wrap;html=1;rounded=0;" vertex="1" parent="WIyWlLk6GJQsqaUBKTNV-1">
          <mxGeometry x="235" y="1180" width="130" height="140" as="geometry" />
        </mxCell>
        <mxCell id="UcAI8EwLYbmK6yxI5ia3-19" value="&#xa;&lt;span style=&quot;color: rgb(0, 0, 0); font-family: Helvetica; font-size: 12px; font-style: normal; font-variant-ligatures: normal; font-variant-caps: normal; font-weight: 400; letter-spacing: normal; orphans: 2; text-align: center; text-indent: 0px; text-transform: none; widows: 2; word-spacing: 0px; -webkit-text-stroke-width: 0px; white-space: normal; background-color: rgb(251, 251, 251); text-decoration-thickness: initial; text-decoration-style: initial; text-decoration-color: initial; display: inline !important; float: none;&quot;&gt;string userName;&lt;/span&gt;&lt;div style=&quot;color: rgb(0, 0, 0); font-family: Helvetica; font-size: 12px; font-style: normal; font-variant-ligatures: normal; font-variant-caps: normal; font-weight: 400; letter-spacing: normal; orphans: 2; text-align: center; text-indent: 0px; text-transform: none; widows: 2; word-spacing: 0px; -webkit-text-stroke-width: 0px; white-space: normal; background-color: rgb(251, 251, 251); text-decoration-thickness: initial; text-decoration-style: initial; text-decoration-color: initial;&quot;&gt;string password;&lt;/div&gt;&#xa;&#xa;" style="shape=parallelogram;perimeter=parallelogramPerimeter;whiteSpace=wrap;html=1;fixedSize=1;" vertex="1" parent="WIyWlLk6GJQsqaUBKTNV-1">
          <mxGeometry x="230" y="170" width="140" height="60" as="geometry" />
        </mxCell>
        <mxCell id="UcAI8EwLYbmK6yxI5ia3-20" value="int n" style="shape=parallelogram;perimeter=parallelogramPerimeter;whiteSpace=wrap;html=1;fixedSize=1;" vertex="1" parent="WIyWlLk6GJQsqaUBKTNV-1">
          <mxGeometry x="240" y="1040" width="120" height="60" as="geometry" />
        </mxCell>
        <mxCell id="UcAI8EwLYbmK6yxI5ia3-21" value="Bolunur" style="shape=document;whiteSpace=wrap;html=1;boundedLbl=1;" vertex="1" parent="WIyWlLk6GJQsqaUBKTNV-1">
          <mxGeometry x="470" y="1210" width="120" height="80" as="geometry" />
        </mxCell>
        <mxCell id="UcAI8EwLYbmK6yxI5ia3-26" style="edgeStyle=orthogonalEdgeStyle;rounded=0;orthogonalLoop=1;jettySize=auto;html=1;entryX=0;entryY=0.5;entryDx=0;entryDy=0;" edge="1" parent="WIyWlLk6GJQsqaUBKTNV-1" source="UcAI8EwLYbmK6yxI5ia3-24" target="UcAI8EwLYbmK6yxI5ia3-25">
          <mxGeometry relative="1" as="geometry" />
        </mxCell>
        <mxCell id="UcAI8EwLYbmK6yxI5ia3-24" value="bolunmur" style="shape=document;whiteSpace=wrap;html=1;boundedLbl=1;" vertex="1" parent="WIyWlLk6GJQsqaUBKTNV-1">
          <mxGeometry x="245" y="1420" width="120" height="80" as="geometry" />
        </mxCell>
        <mxCell id="UcAI8EwLYbmK6yxI5ia3-25" value="end" style="rounded=1;whiteSpace=wrap;html=1;" vertex="1" parent="WIyWlLk6GJQsqaUBKTNV-1">
          <mxGeometry x="480" y="1430" width="120" height="60" as="geometry" />
        </mxCell>
        <mxCell id="UcAI8EwLYbmK6yxI5ia3-27" style="edgeStyle=orthogonalEdgeStyle;rounded=0;orthogonalLoop=1;jettySize=auto;html=1;entryX=0.417;entryY=-0.033;entryDx=0;entryDy=0;entryPerimeter=0;" edge="1" parent="WIyWlLk6GJQsqaUBKTNV-1" source="UcAI8EwLYbmK6yxI5ia3-21" target="UcAI8EwLYbmK6yxI5ia3-25">
          <mxGeometry relative="1" as="geometry" />
        </mxCell>
        <mxCell id="UcAI8EwLYbmK6yxI5ia3-33" style="edgeStyle=orthogonalEdgeStyle;rounded=0;orthogonalLoop=1;jettySize=auto;html=1;entryX=0.5;entryY=0;entryDx=0;entryDy=0;" edge="1" parent="WIyWlLk6GJQsqaUBKTNV-1" source="UcAI8EwLYbmK6yxI5ia3-28" target="UcAI8EwLYbmK6yxI5ia3-29">
          <mxGeometry relative="1" as="geometry" />
        </mxCell>
        <mxCell id="UcAI8EwLYbmK6yxI5ia3-28" value="start" style="rounded=1;whiteSpace=wrap;html=1;" vertex="1" parent="WIyWlLk6GJQsqaUBKTNV-1">
          <mxGeometry x="280" y="1620" width="120" height="60" as="geometry" />
        </mxCell>
        <mxCell id="UcAI8EwLYbmK6yxI5ia3-34" style="edgeStyle=orthogonalEdgeStyle;rounded=0;orthogonalLoop=1;jettySize=auto;html=1;entryX=0.5;entryY=0;entryDx=0;entryDy=0;" edge="1" parent="WIyWlLk6GJQsqaUBKTNV-1" source="UcAI8EwLYbmK6yxI5ia3-29" target="UcAI8EwLYbmK6yxI5ia3-30">
          <mxGeometry relative="1" as="geometry" />
        </mxCell>
        <mxCell id="UcAI8EwLYbmK6yxI5ia3-29" value="int a,b,c;" style="shape=parallelogram;perimeter=parallelogramPerimeter;whiteSpace=wrap;html=1;fixedSize=1;" vertex="1" parent="WIyWlLk6GJQsqaUBKTNV-1">
          <mxGeometry x="280" y="1740" width="120" height="60" as="geometry" />
        </mxCell>
        <mxCell id="UcAI8EwLYbmK6yxI5ia3-32" value="true" style="edgeStyle=orthogonalEdgeStyle;rounded=0;orthogonalLoop=1;jettySize=auto;html=1;entryX=0;entryY=0.5;entryDx=0;entryDy=0;" edge="1" parent="WIyWlLk6GJQsqaUBKTNV-1" source="UcAI8EwLYbmK6yxI5ia3-30" target="UcAI8EwLYbmK6yxI5ia3-31">
          <mxGeometry relative="1" as="geometry" />
        </mxCell>
        <mxCell id="UcAI8EwLYbmK6yxI5ia3-36" value="false" style="edgeStyle=orthogonalEdgeStyle;rounded=0;orthogonalLoop=1;jettySize=auto;html=1;" edge="1" parent="WIyWlLk6GJQsqaUBKTNV-1" source="UcAI8EwLYbmK6yxI5ia3-30" target="UcAI8EwLYbmK6yxI5ia3-35">
          <mxGeometry relative="1" as="geometry" />
        </mxCell>
        <mxCell id="UcAI8EwLYbmK6yxI5ia3-30" value="a&amp;gt;b &amp;amp;&amp;amp; a&amp;gt;c" style="rhombus;whiteSpace=wrap;html=1;" vertex="1" parent="WIyWlLk6GJQsqaUBKTNV-1">
          <mxGeometry x="270" y="1860" width="140" height="140" as="geometry" />
        </mxCell>
        <mxCell id="UcAI8EwLYbmK6yxI5ia3-45" style="edgeStyle=orthogonalEdgeStyle;rounded=0;orthogonalLoop=1;jettySize=auto;html=1;entryX=0.25;entryY=0;entryDx=0;entryDy=0;" edge="1" parent="WIyWlLk6GJQsqaUBKTNV-1" source="UcAI8EwLYbmK6yxI5ia3-31" target="UcAI8EwLYbmK6yxI5ia3-43">
          <mxGeometry relative="1" as="geometry" />
        </mxCell>
        <mxCell id="UcAI8EwLYbmK6yxI5ia3-31" value="a boyuk" style="shape=document;whiteSpace=wrap;html=1;boundedLbl=1;" vertex="1" parent="WIyWlLk6GJQsqaUBKTNV-1">
          <mxGeometry x="470" y="1890" width="120" height="80" as="geometry" />
        </mxCell>
        <mxCell id="UcAI8EwLYbmK6yxI5ia3-38" value="true" style="edgeStyle=orthogonalEdgeStyle;rounded=0;orthogonalLoop=1;jettySize=auto;html=1;" edge="1" parent="WIyWlLk6GJQsqaUBKTNV-1" source="UcAI8EwLYbmK6yxI5ia3-35" target="UcAI8EwLYbmK6yxI5ia3-37">
          <mxGeometry relative="1" as="geometry" />
        </mxCell>
        <mxCell id="UcAI8EwLYbmK6yxI5ia3-40" value="false" style="edgeStyle=orthogonalEdgeStyle;rounded=0;orthogonalLoop=1;jettySize=auto;html=1;" edge="1" parent="WIyWlLk6GJQsqaUBKTNV-1" source="UcAI8EwLYbmK6yxI5ia3-35" target="UcAI8EwLYbmK6yxI5ia3-39">
          <mxGeometry relative="1" as="geometry" />
        </mxCell>
        <mxCell id="UcAI8EwLYbmK6yxI5ia3-35" value="b&amp;gt;c &amp;amp;&amp;amp; b&amp;gt;a" style="rhombus;whiteSpace=wrap;html=1;" vertex="1" parent="WIyWlLk6GJQsqaUBKTNV-1">
          <mxGeometry x="270" y="2080" width="140" height="140" as="geometry" />
        </mxCell>
        <mxCell id="UcAI8EwLYbmK6yxI5ia3-44" style="edgeStyle=orthogonalEdgeStyle;rounded=0;orthogonalLoop=1;jettySize=auto;html=1;entryX=0.5;entryY=0;entryDx=0;entryDy=0;" edge="1" parent="WIyWlLk6GJQsqaUBKTNV-1" source="UcAI8EwLYbmK6yxI5ia3-37" target="UcAI8EwLYbmK6yxI5ia3-43">
          <mxGeometry relative="1" as="geometry" />
        </mxCell>
        <mxCell id="UcAI8EwLYbmK6yxI5ia3-37" value="b boyuk" style="shape=document;whiteSpace=wrap;html=1;boundedLbl=1;" vertex="1" parent="WIyWlLk6GJQsqaUBKTNV-1">
          <mxGeometry x="500" y="2110" width="120" height="80" as="geometry" />
        </mxCell>
        <mxCell id="UcAI8EwLYbmK6yxI5ia3-42" value="" style="edgeStyle=orthogonalEdgeStyle;rounded=0;orthogonalLoop=1;jettySize=auto;html=1;" edge="1" parent="WIyWlLk6GJQsqaUBKTNV-1" source="UcAI8EwLYbmK6yxI5ia3-39">
          <mxGeometry relative="1" as="geometry">
            <mxPoint x="500" y="2370" as="targetPoint" />
          </mxGeometry>
        </mxCell>
        <mxCell id="UcAI8EwLYbmK6yxI5ia3-39" value="c boyuk" style="shape=document;whiteSpace=wrap;html=1;boundedLbl=1;" vertex="1" parent="WIyWlLk6GJQsqaUBKTNV-1">
          <mxGeometry x="280" y="2330" width="120" height="80" as="geometry" />
        </mxCell>
        <mxCell id="UcAI8EwLYbmK6yxI5ia3-43" value="end" style="rounded=1;whiteSpace=wrap;html=1;" vertex="1" parent="WIyWlLk6GJQsqaUBKTNV-1">
          <mxGeometry x="500" y="2340" width="120" height="60" as="geometry" />
        </mxCell>
      </root>
    </mxGraphModel>
  </diagram>
</mxfile>
